<svg width="18" height="24" viewBox="0 0 18 24" fill="none" xmlns="http://www.w3.org/2000/svg">
<path d="M14.1811 11.1227C15.5719 10.3387 16.3236 8.7694 16.0644 7.1951C15.7425 4.76456 12.8452 3.84699 10.5594 3.65389V0H8.30586V3.62172H6.79281V0H4.53929V3.62172H0V5.95575H1.69014C2.4467 5.95575 2.8169 6.1811 2.8169 6.79273V16.8209C2.8169 17.6579 2.39837 17.9155 1.94766 17.9155H0.225352V20.2978H4.60363V24H6.87324V20.2978H8.38628V24H10.5915V20.2978H11.0744C15.7102 20.2978 17.2555 18.0282 17.2555 14.9377C17.2185 13.1154 15.9549 11.5476 14.1811 11.1227ZM6.79273 6.10059H8.40237C9.52913 6.10059 11.7505 6.29377 11.7505 8.12876C11.8277 9.32636 10.9601 10.3759 9.77056 10.5271H6.79273V6.10059ZM9.28769 17.6901V17.674H6.79273V12.845H9.69014C10.3662 12.845 12.9094 13.0703 12.9094 14.8732C12.9094 16.676 11.7022 17.6901 9.28769 17.6901Z" fill="white"/>
</svg>
