<svg width="91" height="31" viewBox="0 0 91 31" fill="none" xmlns="http://www.w3.org/2000/svg">
<path d="M1 30L4.07087 25.7337C4.38456 25.2979 4.98641 25.1876 5.43423 25.4839L10.2474 28.6681C10.7415 28.995 11.4099 28.823 11.6849 28.2982L20.0399 12.3541C20.3358 11.7893 21.0776 11.6421 21.5669 12.0509L33.6968 22.1874C34.1025 22.5264 34.7019 22.491 35.065 22.1067L37.772 19.2413C37.92 19.0847 38.1147 18.98 38.3271 18.943L41.6085 18.3706C41.8599 18.3268 42.0851 18.1884 42.2378 17.9839L45.0246 14.2527C45.407 13.7408 46.1649 13.7139 46.5826 14.1975L49.3725 17.4275C49.771 17.8888 50.486 17.8893 50.8851 17.4286L53.8263 14.0335C54.1952 13.6076 54.843 13.5705 55.2582 13.9515L58.9409 17.3306C59.4542 17.8016 60.2798 17.6165 60.5429 16.9715L64.4913 7.29334C64.7447 6.6724 65.5253 6.4719 66.0465 6.89392L69.6054 9.77565C70.0779 10.1582 70.7795 10.0342 71.0922 9.51297L75.5868 2.02208C75.9877 1.35391 76.9234 1.4032 77.1464 2.1498C78.8893 7.98462 78.2368 19 90 19" stroke="#1FD292" stroke-width="2" stroke-linecap="round"/>
</svg>
